<svg width="12" height="12" viewBox="0 0 12 12" fill="none" xmlns="http://www.w3.org/2000/svg">
<g id="Frame">
<g id="Frame_2">
<path id="Vector" d="M10.3434 8.17134H9.72378V5.06924C9.72378 3.22222 8.37642 1.69226 6.61047 1.40156C6.61245 1.38311 6.62036 1.36597 6.62036 1.34685C6.62036 1.00408 6.34351 0.726562 6.00007 0.726562C5.6573 0.726562 5.37978 1.00408 5.37978 1.34685C5.37978 1.36597 5.38901 1.38245 5.39099 1.40156C3.62571 1.69226 2.27834 3.22156 2.27834 5.06924V8.17134H1.6574C1.31462 8.17134 1.03711 8.44885 1.03711 8.79163C1.03711 9.1344 1.31462 9.41125 1.6574 9.41125H10.3427C10.6855 9.41125 10.9624 9.13374 10.9624 8.79163C10.963 8.44885 10.6855 8.17134 10.3434 8.17134V8.17134ZM6.00007 11.2734C6.68562 11.2734 7.24131 10.7177 7.24131 10.0329H4.7595C4.7595 10.7177 5.31519 11.2734 6.00007 11.2734Z" fill="url(#paint0_linear_1675_87787)"/>
</g>
</g>
<defs>
<linearGradient id="paint0_linear_1675_87787" x1="5.99974" y1="0.726562" x2="5.99974" y2="11.2734" gradientUnits="userSpaceOnUse">
<stop stop-color="#228AEA"/>
<stop offset="1" stop-color="#91D1FF" stop-opacity="0.94"/>
</linearGradient>
</defs>
</svg>
