<svg width="16" height="16" viewBox="0 0 16 16" fill="none" xmlns="http://www.w3.org/2000/svg">
<g id="&#228;&#184;&#139;&#230;&#139;&#137;">
<path id="Vector" d="M14.9267 2.85291L14.8547 2.81291C14.8269 2.77488 14.7938 2.74119 14.7564 2.7129L11.9398 1.0661C11.8693 1.02758 11.7906 1.00743 11.7106 1.00743C11.6306 1.00743 11.5518 1.02758 11.4813 1.0661L8.6647 2.7129L8.5861 2.79291L8.47474 2.85958C8.45289 2.87242 8.43473 2.89088 8.42208 2.91312C8.40944 2.93535 8.40275 2.96057 8.40269 2.98626V3.26628L8.26514 3.18627C8.19145 3.14297 8.10786 3.12017 8.02278 3.12017C7.93769 3.12017 7.8541 3.14297 7.78042 3.18627L7.64286 3.26628V2.99959C7.64494 2.96838 7.63716 2.93732 7.62066 2.91093C7.60417 2.88454 7.57981 2.86421 7.55116 2.85291L7.43981 2.78624C7.43981 2.78624 7.39395 2.72624 7.3612 2.70623L4.5446 1.0661C4.47091 1.0228 4.38732 1 4.30224 1C4.21715 1 4.13356 1.0228 4.05988 1.0661L1.24327 2.7129C1.20303 2.74261 1.16766 2.77862 1.13847 2.81958L1.06641 2.85958C1.04373 2.87436 1.02558 2.89531 1.014 2.92005C1.00242 2.9448 0.997887 2.97236 1.00091 2.99959V6.60655C1.00097 6.63224 1.00766 6.65746 1.0203 6.67969C1.03295 6.70192 1.05111 6.72039 1.07296 6.73323L1.14502 6.77323C1.17412 6.81427 1.20951 6.85028 1.24982 6.87991L4.06643 8.52671C4.14011 8.57001 4.2237 8.59281 4.30879 8.59281C4.39387 8.59281 4.47746 8.57001 4.55115 8.52671L4.70835 8.43337V8.57338C4.70703 8.65786 4.72677 8.74131 4.76571 8.81593C4.80466 8.89055 4.86154 8.9539 4.93106 9.00008L5.00311 9.04008L4.74765 9.18676C4.7258 9.19961 4.70764 9.21807 4.69499 9.2403C4.68235 9.26253 4.67566 9.28775 4.6756 9.31344V12.9404C4.67548 12.9644 4.68144 12.9881 4.69291 13.0091C4.70438 13.0302 4.72098 13.0478 4.7411 13.0604C4.77959 13.1543 4.84602 13.2336 4.93106 13.2871L7.74767 14.9339C7.82135 14.9772 7.90494 15 7.99003 15C8.07511 15 8.1587 14.9772 8.23239 14.9339L11.049 13.2871C11.134 13.2336 11.2005 13.1543 11.2389 13.0604C11.2591 13.0478 11.2757 13.0302 11.2871 13.0091C11.2986 12.9881 11.3046 12.9644 11.3045 12.9404V9.31344C11.3044 9.28775 11.2977 9.26253 11.2851 9.2403C11.2724 9.21807 11.2543 9.19961 11.2324 9.18676L10.9835 9.04008L11.0555 9.00008C11.1287 8.95632 11.1895 8.89402 11.232 8.81924C11.2744 8.74446 11.2972 8.65975 11.2979 8.57338V8.43337L11.4551 8.52671C11.5288 8.57001 11.6124 8.59281 11.6975 8.59281C11.7826 8.59281 11.8661 8.57001 11.9398 8.52671L14.7564 6.87991C14.7937 6.85155 14.8268 6.81787 14.8547 6.7799L14.9267 6.7399C14.9486 6.72705 14.9668 6.70859 14.9794 6.68636C14.992 6.66413 14.9987 6.63891 14.9988 6.61322V2.99959C15.0025 2.97062 14.9976 2.94118 14.9848 2.91505C14.9719 2.88891 14.9517 2.86728 14.9267 2.85291ZM8.06863 7.37328C8.04752 7.36161 8.02388 7.3555 7.99985 7.3555C7.97583 7.3555 7.95219 7.36161 7.93107 7.37328L5.73019 8.63339L5.40923 8.44004V8.01333L7.3743 6.87324L7.45291 6.79323L7.55116 6.73323C7.57302 6.72039 7.59118 6.70192 7.60382 6.67969C7.61647 6.65746 7.62315 6.63224 7.62321 6.60655V4.09968L8.00313 3.87966L8.38304 4.09968V6.60655C8.3831 6.63224 8.38979 6.65746 8.40243 6.67969C8.41508 6.70192 8.43324 6.72039 8.45509 6.73323L8.56645 6.79323C8.58946 6.82296 8.61584 6.84982 8.64505 6.87324L10.6101 8.01333V8.43337L10.2892 8.62672L8.06863 7.37328Z" fill="url(#paint0_linear_1675_84181)"/>
</g>
<defs>
<linearGradient id="paint0_linear_1675_84181" x1="9.79653" y1="16.9684" x2="9.79653" y2="1.52541" gradientUnits="userSpaceOnUse">
<stop stop-color="white"/>
<stop offset="1" stop-color="#49B3FF"/>
</linearGradient>
</defs>
</svg>
