<svg width="16" height="16" viewBox="0 0 16 16" fill="none" xmlns="http://www.w3.org/2000/svg">
<g id="&#228;&#184;&#139;&#230;&#139;&#137;">
<path id="Vector" d="M13.9121 14.9953H2.07617L3.6793 12.0938H12.309L13.9121 14.9953Z" fill="#69CBF5"/>
<path id="Subtract" fill-rule="evenodd" clip-rule="evenodd" d="M12.9766 6.22656C12.9766 7.40781 12.5859 8.49688 11.9266 9.37188L11.9312 9.37969L11.8656 9.44531C11.6016 9.78281 11.2969 10.0875 10.9594 10.3516L7.74062 13.5703L4.52187 10.3516C4.18437 10.0875 3.87969 9.78281 3.61562 9.44531L3.55 9.37969L3.55781 9.37188C2.89844 8.49688 2.50781 7.40781 2.50781 6.22656C2.50781 3.33594 4.85156 0.992188 7.74219 0.992188C10.6328 0.992188 12.9766 3.33594 12.9766 6.22656ZM6.8431 6.74701C6.57117 6.47508 6.4184 6.10627 6.4184 5.7217C6.4184 5.33714 6.57117 4.96832 6.8431 4.6964C7.11503 4.42447 7.48384 4.2717 7.8684 4.2717C8.25297 4.2717 8.62178 4.42447 8.89371 4.6964C9.16563 4.96832 9.3184 5.33714 9.3184 5.7217C9.3184 6.10627 9.16563 6.47508 8.89371 6.74701C8.62178 7.01893 8.25297 7.1717 7.8684 7.1717C7.48384 7.1717 7.11503 7.01893 6.8431 6.74701Z" fill="url(#paint0_linear_1675_84972)"/>
</g>
<defs>
<linearGradient id="paint0_linear_1675_84972" x1="9.08558" y1="15.3388" x2="9.08558" y2="1.46423" gradientUnits="userSpaceOnUse">
<stop stop-color="white"/>
<stop offset="1" stop-color="#49B3FF"/>
</linearGradient>
</defs>
</svg>
