<svg width="16" height="16" viewBox="0 0 16 16" fill="none" xmlns="http://www.w3.org/2000/svg">
<path fill-rule="evenodd" clip-rule="evenodd" d="M4 1C2.34315 1 1 2.34315 1 4V12C1 13.6569 2.34315 15 4 15H12C13.6569 15 15 13.6569 15 12V4C15 2.34315 13.6569 1 12 1H4ZM13.1528 6.51439C13.1528 6.16128 12.8666 5.87506 12.5139 5.87506L10.9167 5.87506C10.5636 5.87506 10.2778 5.58922 10.2778 5.23611V3.63894C10.2778 3.46949 10.2105 3.30697 10.0906 3.18714C9.97081 3.06732 9.80829 3 9.63883 3C9.46937 3 9.30686 3.06732 9.18703 3.18714C9.06721 3.30697 8.99989 3.46949 8.99989 3.63894L8.99989 5.23611C8.99989 5.74449 9.20184 6.23204 9.56132 6.59152C9.92079 6.95099 10.4083 7.15294 10.9167 7.15294H12.5139C12.8666 7.15294 13.1528 6.86711 13.1528 6.51439ZM3 9.63867C3 9.99178 3.28622 10.278 3.63894 10.278H5.23611C5.58922 10.278 5.87506 10.5638 5.87506 10.9169V12.5141C5.87506 12.6836 5.94237 12.8461 6.0622 12.9659C6.18202 13.0857 6.34454 13.1531 6.514 13.1531C6.68346 13.1531 6.84598 13.0857 6.9658 12.9659C7.08563 12.8461 7.15294 12.6836 7.15294 12.5141V10.9169C7.15294 10.4086 6.95099 9.92102 6.59152 9.56154C6.23204 9.20206 5.74449 9.00011 5.23611 9.00011H3.63894C3.28622 9.00011 3 9.28595 3 9.63867Z" fill="url(#paint0_linear_1675_86557)"/>
<defs>
<linearGradient id="paint0_linear_1675_86557" x1="9.79653" y1="16.9684" x2="9.79653" y2="1.52541" gradientUnits="userSpaceOnUse">
<stop stop-color="white"/>
<stop offset="1" stop-color="#49B3FF"/>
</linearGradient>
</defs>
</svg>
