<svg width="12" height="12" viewBox="0 0 12 12" fill="none" xmlns="http://www.w3.org/2000/svg">
<g id="Frame">
<g id="Frame_2">
<path id="Vector" d="M10.9091 8.96601L6.58655 1.34466C6.52711 1.23988 6.44163 1.15286 6.33868 1.09236C6.23574 1.03186 6.11897 1.00001 6.0001 1C5.88122 0.99999 5.76444 1.03184 5.66149 1.09234C5.55855 1.15284 5.47307 1.23987 5.41364 1.34466L1.09079 8.96601C0.969735 9.17928 0.969735 9.44206 1.09079 9.65534C1.21185 9.86861 1.43538 10 1.67725 10H10.3228C10.5648 10 10.7882 9.86861 10.9093 9.65534C11.0303 9.44206 11.0302 9.17928 10.9091 8.96601ZM6.08755 3.4738C6.39522 3.47121 6.70022 3.74928 6.70022 4.00713L6.54823 6.67386C6.54823 6.93171 6.34099 7.14279 6.08767 7.14279C5.83436 7.14279 5.62712 6.93184 5.62712 6.67386L5.47513 4.00713C5.47487 3.74928 5.71661 3.48365 6.08755 3.4738V3.4738ZM6.08755 9.08133C5.73799 9.08133 5.45463 8.7929 5.45463 8.43709C5.45463 8.08128 5.73799 7.79286 6.08755 7.79286C6.4371 7.79286 6.72046 8.08128 6.72046 8.43709C6.72046 8.7929 6.4371 9.08133 6.08755 9.08133Z" fill="url(#paint0_linear_1675_87791)"/>
</g>
</g>
<defs>
<linearGradient id="paint0_linear_1675_87791" x1="6" y1="1" x2="6" y2="10" gradientUnits="userSpaceOnUse">
<stop stop-color="#228AEA"/>
<stop offset="1" stop-color="#91D1FF" stop-opacity="0.94"/>
</linearGradient>
</defs>
</svg>
