<svg width="15" height="18" viewBox="0 0 15 18" fill="none" xmlns="http://www.w3.org/2000/svg">
<path d="M8.62696 0.71302C8.97764 0.392984 9.50355 0.438768 9.80162 0.81528C10.0768 1.16283 10.0616 1.6707 9.78182 1.99849L9.70638 2.07649L2.11917 8.99913L9.70638 15.9235C10.0301 16.219 10.0913 16.7228 9.86437 17.0947L9.80162 17.1848C9.52648 17.5323 9.0572 17.5981 8.71081 17.3544L8.62696 17.287L0.293626 9.68176C-0.0717753 9.34828 -0.0961355 8.7608 0.220546 8.39346L0.293626 8.31828L8.62696 0.71302Z" fill="#FCE97E"/>
<path d="M14.1762 3.62531C14.3866 3.43705 14.7021 3.46398 14.881 3.68546C15.046 3.8899 15.0369 4.18864 14.8691 4.38146L14.8238 4.42735L10.2715 8.49947L14.8238 12.5727C15.018 12.7464 15.0548 13.0428 14.9186 13.2616L14.881 13.3145C14.7159 13.519 14.4343 13.5577 14.2265 13.4143L14.1762 13.3747L9.17618 8.90102C8.95693 8.70486 8.94232 8.35928 9.13233 8.1432L9.17618 8.09898L14.1762 3.62531Z" fill="#FCE97E"/>
</svg>
