<svg width="16" height="16" viewBox="0 0 16 16" fill="none" xmlns="http://www.w3.org/2000/svg">
<path d="M1 4.18189C1 3.338 1.33523 2.52867 1.93195 1.93195C2.52867 1.33523 3.338 1 4.18189 1L11.8181 1C12.662 1 13.4713 1.33523 14.068 1.93195C14.6648 2.52867 15 3.338 15 4.18189V11.8181C15 12.662 14.6648 13.4713 14.068 14.068C13.4713 14.6648 12.662 15 11.8181 15H4.18189C3.338 15 2.52867 14.6648 1.93195 14.068C1.33523 13.4713 1 12.662 1 11.8181V4.18189ZM8.51372 4.36078C8.51372 4.71389 8.79994 5.00011 9.15267 5.00011H10.7498C11.1029 5.00011 11.3888 5.28594 11.3888 5.63906V7.23622C11.3888 7.40568 11.4561 7.5682 11.5759 7.68802C11.6957 7.80785 11.8583 7.87517 12.0277 7.87517C12.1972 7.87517 12.3597 7.80785 12.4795 7.68802C12.5993 7.5682 12.6667 7.40568 12.6667 7.23622V5.63906C12.6667 5.13068 12.4647 4.64313 12.1052 4.28365C11.7458 3.92417 11.2582 3.72222 10.7498 3.72222H9.15267C8.79994 3.72222 8.51372 4.00844 8.51372 4.36117V4.36078ZM4.36117 8.5145C4.00844 8.5145 3.72222 8.80033 3.72222 9.15306V10.7502C3.72233 11.2585 3.92432 11.746 4.28379 12.1054C4.64325 12.4648 5.13075 12.6667 5.63906 12.6667H7.23622C7.40568 12.6667 7.5682 12.5993 7.68802 12.4795C7.80785 12.3597 7.87517 12.1972 7.87517 12.0277C7.87517 11.8583 7.80785 11.6957 7.68802 11.5759C7.5682 11.4561 7.40568 11.3888 7.23622 11.3888H5.63906C5.4696 11.3888 5.30708 11.3215 5.18725 11.2016C5.06743 11.0818 5.00011 10.9193 5.00011 10.7498V9.15267C5.00011 8.79994 4.71389 8.51372 4.36117 8.51372V8.5145Z" fill="url(#paint0_linear_1675_84113)"/>
<defs>
<linearGradient id="paint0_linear_1675_84113" x1="9.79653" y1="16.9684" x2="9.79653" y2="1.52541" gradientUnits="userSpaceOnUse">
<stop stop-color="white"/>
<stop offset="1" stop-color="#49B3FF"/>
</linearGradient>
</defs>
</svg>
