<svg width="8" height="8" viewBox="0 0 8 8" fill="none" xmlns="http://www.w3.org/2000/svg">
<g id="Frame">
<path id="Vector" d="M4.04468 6.2196C3.68913 6.2196 3.37802 6.08626 3.11135 5.8196L0.578017 2.97515C0.400239 2.79737 0.444684 2.53071 0.622461 2.35293C0.800239 2.17515 1.06691 2.2196 1.24468 2.39737L3.82246 5.24182C3.86691 5.28626 3.9558 5.33071 4.04468 5.33071C4.13357 5.33071 4.22246 5.28626 4.31135 5.19737L6.7558 2.35293C6.93357 2.17515 7.20024 2.13071 7.37802 2.30849C7.5558 2.48626 7.60024 2.75293 7.42246 2.93071L4.97802 5.77515C4.7558 6.08626 4.44468 6.2196 4.04468 6.2196C4.04468 6.2196 4.08913 6.2196 4.04468 6.2196Z" fill="white"/>
</g>
</svg>
