<svg width="16" height="16" viewBox="0 0 16 16" fill="none" xmlns="http://www.w3.org/2000/svg">
<g id="&#228;&#184;&#139;&#230;&#139;&#137;">
<g id="Frame">
<path id="Union" fill-rule="evenodd" clip-rule="evenodd" d="M1.99167 2.29148C1.99167 2.46107 2.02507 2.62901 2.08998 2.7857C2.15488 2.94239 2.25001 3.08476 2.36993 3.20469C2.48986 3.32461 2.63223 3.41974 2.78892 3.48464C2.94561 3.54955 3.11355 3.58295 3.28314 3.58295C3.45274 3.58295 3.62068 3.54955 3.77737 3.48464C3.93406 3.41974 4.07643 3.32461 4.19636 3.20469C4.31628 3.08476 4.41141 2.94239 4.47631 2.7857C4.54122 2.62901 4.57462 2.46107 4.57462 2.29148C4.57462 2.12188 4.54122 1.95394 4.47631 1.79725C4.41141 1.64056 4.31628 1.49819 4.19636 1.37826C4.07643 1.25834 3.93406 1.16321 3.77737 1.09831C3.62068 1.03341 3.45274 1 3.28314 1C3.11355 1 2.94561 1.03341 2.78892 1.09831C2.63223 1.16321 2.48986 1.25834 2.36993 1.37826C2.25001 1.49819 2.15488 1.64056 2.08998 1.79725C2.02507 1.95394 1.99167 2.12188 1.99167 2.29148ZM5.07895 7.10207C4.87505 6.60981 4.7701 6.0822 4.7701 5.54938C4.7701 5.01655 4.87505 4.48895 5.07895 3.99668C5.28285 3.50442 5.58172 3.05713 5.95848 2.68037C6.33524 2.30361 6.78253 2.00474 7.27479 1.80084C7.76706 1.59694 8.29466 1.49199 8.82748 1.49199C9.36031 1.49199 9.88791 1.59694 10.3802 1.80084C10.8724 2.00474 11.3197 2.30361 11.6965 2.68037C12.0733 3.05713 12.3721 3.50442 12.576 3.99668C12.7799 4.48895 12.8849 5.01655 12.8849 5.54938C12.8849 6.0822 12.7799 6.60981 12.576 7.10207C12.3721 7.59434 12.0733 8.04162 11.6965 8.41838C11.3197 8.79515 10.8724 9.09401 10.3802 9.29791C9.88791 9.50182 9.36031 9.60676 8.82748 9.60676C8.29466 9.60676 7.76706 9.50182 7.27479 9.29791C6.78253 9.09401 6.33524 8.79515 5.95848 8.41838C5.58172 8.04162 5.28285 7.59434 5.07895 7.10207ZM1 9.6977C1.00308 8.20789 2.02704 6.95639 3.41076 6.60892C3.73209 6.52744 4.06419 6.71347 4.15336 7.03327C4.53773 8.38163 5.54784 9.46708 6.84855 9.956C7.15911 10.0728 7.31747 10.4157 7.21139 10.7293C6.78243 11.9931 5.58321 12.9003 4.17181 12.8926C2.43908 12.8818 0.99693 11.4304 1 9.6977ZM10.4292 11.7975C10.4199 10.5491 11.4331 9.53437 12.6815 9.54513C13.8977 9.55589 14.8832 10.5414 14.894 11.7576C14.9032 13.006 13.89 14.0207 12.6416 14.0099C11.4254 14.0007 10.4399 13.0137 10.4292 11.7975Z" fill="url(#paint0_linear_1675_85823)"/>
</g>
</g>
<defs>
<linearGradient id="paint0_linear_1675_85823" x1="9.72995" y1="15.8393" x2="9.72995" y2="1.48825" gradientUnits="userSpaceOnUse">
<stop stop-color="white"/>
<stop offset="1" stop-color="#49B3FF"/>
</linearGradient>
</defs>
</svg>
