<svg width="16" height="16" viewBox="0 0 16 16" fill="none" xmlns="http://www.w3.org/2000/svg">
<g id="Frame">
<path id="Subtract" fill-rule="evenodd" clip-rule="evenodd" d="M2.45318 13.2647C1.02 11.8316 0.214844 9.88775 0.214844 7.86092C0.214844 5.83409 1.02 3.89027 2.45318 2.45709C3.88637 1.0239 5.83018 0.21875 7.85701 0.21875C9.88384 0.21875 11.8277 1.0239 13.2608 2.45709C14.694 3.89027 15.4992 5.83409 15.4992 7.86092C15.4992 9.88775 14.694 11.8316 13.2608 13.2647C11.8277 14.6979 9.88384 15.5031 7.85701 15.5031C5.83018 15.5031 3.88637 14.6979 2.45318 13.2647ZM7.44825 4.52085C7.34693 4.41954 7.29002 4.28213 7.29002 4.13885C7.29002 3.99557 7.34693 3.85815 7.44825 3.75684C7.54956 3.65552 7.68698 3.59861 7.83026 3.59861C7.97354 3.59861 8.11095 3.65552 8.21226 3.75684L9.36985 4.91463C9.42002 4.96479 9.45982 5.02434 9.48697 5.08989C9.51413 5.15543 9.5281 5.22569 9.5281 5.29663C9.5281 5.36758 9.51413 5.43784 9.48697 5.50338C9.45982 5.56893 9.42002 5.62848 9.36985 5.67864L8.21226 6.83623C8.1621 6.8864 8.10254 6.92619 8.037 6.95334C7.97145 6.98049 7.9012 6.99446 7.83026 6.99446C7.75931 6.99446 7.68906 6.98049 7.62352 6.95334C7.55797 6.92619 7.49841 6.8864 7.44825 6.83623C7.39808 6.78606 7.35829 6.72651 7.33114 6.66096C7.30399 6.59542 7.29002 6.52517 7.29002 6.45422C7.29002 6.38328 7.30399 6.31303 7.33114 6.24748C7.35829 6.18194 7.39808 6.12238 7.44825 6.07221L7.65858 5.86188C6.21145 6.06324 5.16654 7.34951 5.26568 8.80732C5.36503 10.265 6.5749 11.3978 8.03596 11.4012C8.77391 11.4011 9.48159 11.1079 10.0033 10.586C10.5251 10.0642 10.8182 9.35642 10.8181 8.61847C10.8181 8.47521 10.875 8.33781 10.9763 8.23651C11.0776 8.13521 11.215 8.07829 11.3583 8.07829C11.5016 8.07829 11.639 8.13521 11.7403 8.23651C11.8416 8.33781 11.8985 8.47521 11.8985 8.61847C11.8985 10.7518 10.1693 12.481 8.03596 12.481C5.90259 12.481 4.17345 10.7522 4.17345 8.61888C4.17345 6.59913 5.72361 4.94159 7.6983 4.77084L7.96593 5.03827L7.44825 4.52085Z" fill="url(#paint0_linear_1675_84186)"/>
</g>
<defs>
<linearGradient id="paint0_linear_1675_84186" x1="9.81835" y1="17.6521" x2="9.81835" y2="0.792356" gradientUnits="userSpaceOnUse">
<stop stop-color="white"/>
<stop offset="1" stop-color="#49B3FF"/>
</linearGradient>
</defs>
</svg>
