<svg width="12" height="12" viewBox="0 0 12 12" fill="none" xmlns="http://www.w3.org/2000/svg">
<path d="M1.71429 1H10.2857C10.4752 1 10.6568 1.07525 10.7908 1.20921C10.9247 1.34316 11 1.52485 11 1.71429V4.57143C11 4.76087 10.9247 4.94255 10.7908 5.0765C10.6568 5.21046 10.4752 5.28571 10.2857 5.28571H1.71429C1.52485 5.28571 1.34316 5.21046 1.20921 5.0765C1.07525 4.94255 1 4.76087 1 4.57143V1.71429C1 1.52485 1.07525 1.34316 1.20921 1.20921C1.34316 1.07525 1.52485 1 1.71429 1V1ZM2.78571 2.42857C2.691 2.42859 2.60018 2.46622 2.53321 2.5332C2.46625 2.60017 2.42863 2.691 2.42863 2.78571C2.42863 2.88042 2.46625 2.97126 2.53321 3.03823C2.60018 3.10521 2.691 3.14284 2.78571 3.14286H4.92857C5.02328 3.14284 5.11411 3.10521 5.18107 3.03823C5.24804 2.97126 5.28566 2.88042 5.28566 2.78571C5.28566 2.691 5.24804 2.60017 5.18107 2.5332C5.11411 2.46622 5.02328 2.42859 4.92857 2.42857H2.78571ZM1.71429 6.71429H10.2857C10.4752 6.71429 10.6568 6.78954 10.7908 6.9235C10.9247 7.05745 11 7.23913 11 7.42857V10.2857C11 10.3795 10.9815 10.4724 10.9456 10.5591C10.9097 10.6457 10.8571 10.7245 10.7908 10.7908C10.7245 10.8571 10.6457 10.9097 10.5591 10.9456C10.4724 10.9815 10.3795 11 10.2857 11H1.71429C1.62048 11 1.5276 10.9815 1.44094 10.9456C1.35428 10.9097 1.27554 10.8571 1.20921 10.7908C1.14288 10.7245 1.09027 10.6457 1.05437 10.5591C1.01848 10.4724 1 10.3795 1 10.2857V7.42857C1 7.33477 1.01848 7.24189 1.05437 7.15523C1.09027 7.06856 1.14288 6.98982 1.20921 6.9235C1.27554 6.85717 1.35428 6.80455 1.44094 6.76866C1.5276 6.73276 1.62048 6.71429 1.71429 6.71429ZM2.78571 8.14286C2.69099 8.14286 2.60015 8.18048 2.53318 8.24746C2.4662 8.31444 2.42857 8.40528 2.42857 8.5C2.42857 8.59472 2.4662 8.68556 2.53318 8.75254C2.60015 8.81952 2.69099 8.85714 2.78571 8.85714H4.92857C5.02329 8.85714 5.11413 8.81952 5.18111 8.75254C5.24809 8.68556 5.28571 8.59472 5.28571 8.5C5.28571 8.40528 5.24809 8.31444 5.18111 8.24746C5.11413 8.18048 5.02329 8.14286 4.92857 8.14286H2.78571Z" fill="url(#paint0_linear_1675_85013)"/>
<defs>
<linearGradient id="paint0_linear_1675_85013" x1="6" y1="1" x2="6" y2="11" gradientUnits="userSpaceOnUse">
<stop stop-color="#228AEA"/>
<stop offset="1" stop-color="#91D1FF" stop-opacity="0.94"/>
</linearGradient>
</defs>
</svg>
